<svg xmlns="http://www.w3.org/2000/svg" viewBox="0 0 24 24" fill="none" stroke="currentColor" stroke-width="1.5" stroke-linecap="round" stroke-linejoin="round">
  <!-- Sandal base -->
  <path d="M5 18c0 1 2 2 7 2s7-1 7-2l-1-3H6z" fill="currentColor" opacity="0.15"/>
  <path d="M5 18c0 1 2 2 7 2s7-1 7-2"/>
  <path d="M6 15h12l1 3H5z"/>
  <!-- Straps -->
  <path d="M8 15v-3c0-1 1-2 4-2s4 1 4 2v3"/>
  <path d="M9 12h6"/>
  <!-- Wing left -->
  <path d="M6 13c-3-2-5-5-4-7 1 1 3 2 5 3"/>
  <path d="M5 11c-2-2-3-5-2-7 1 1 3 3 4 4"/>
  <!-- Wing right -->
  <path d="M18 13c3-2 5-5 4-7-1 1-3 2-5 3"/>
  <path d="M19 11c2-2 3-5 2-7-1 1-3 3-4 4"/>
</svg>
